<svg width="59" height="17" viewBox="0 0 59 17" fill="none" xmlns="http://www.w3.org/2000/svg">
<path d="M4.016 14.336H9.536V17H0.656V0.248H4.016V14.336ZM22.0156 0.248V2.96H15.0316V7.256H20.3836V9.92H15.0316V17H11.6716V0.248H22.0156ZM36.6142 5.432C36.6142 6.328 36.3982 7.168 35.9662 7.952C35.5502 8.736 34.8862 9.368 33.9742 9.848C33.0782 10.328 31.9422 10.568 30.5662 10.568H27.7582V17H24.3982V0.248H30.5662C31.8622 0.248 32.9662 0.472 33.8782 0.92C34.7902 1.368 35.4702 1.984 35.9182 2.768C36.3822 3.552 36.6142 4.44 36.6142 5.432ZM30.4222 7.856C31.3502 7.856 32.0382 7.648 32.4862 7.232C32.9342 6.8 33.1582 6.2 33.1582 5.432C33.1582 3.8 32.2462 2.984 30.4222 2.984H27.7582V7.856H30.4222ZM42.3598 14.336H47.8798V17H38.9998V0.248H42.3598V14.336ZM53.3754 14.336H58.8954V17H50.0154V0.248H53.3754V14.336Z" fill="#333333"/>
</svg>
