<svg width="84" height="92" viewBox="0 0 84 92" fill="none" xmlns="http://www.w3.org/2000/svg">
<path d="M60.7499 14.7498L56.5833 10.2915L66.6666 0.166504H75.3333L60.7499 14.7498ZM79.3333 91.8332C74.9166 91.8332 70.7499 90.7915 66.8333 88.7082C59.1666 92.8748 49.5416 92.8748 41.8749 88.7082C34.2083 92.8748 24.5833 92.8748 16.9999 88.7082C11.8749 91.5832 5.99992 92.0415 0.333252 91.8332V83.4998C6.20825 83.7082 11.8749 83.0832 16.9999 79.3332C24.2499 84.5415 34.5416 84.5415 41.8749 79.3332C49.2499 84.5415 59.4999 84.5415 66.8333 79.3332C71.8749 83.0832 77.5833 83.7082 83.4166 83.4998V91.8332H79.3333ZM76.7916 47.0832C68.2499 43.9165 59.2499 48.5415 50.6666 51.6665L43.6249 43.9165H31.9166V29.3332C41.5416 30.1248 51.5416 27.9582 58.2499 20.8332L52.4166 14.9998C48.6666 18.7498 43.2499 20.9998 37.8333 20.9998H25.3333C20.7083 20.9998 16.7916 24.8332 16.9999 29.3332C17.2916 34.9582 15.6249 49.0415 18.8749 53.7915L25.3333 66.0832C22.9583 67.7915 20.8749 69.4165 19.0833 70.9998C25.7083 77.2498 36.3749 75.8748 41.8749 68.9165C45.7916 73.4582 52.2083 76.4165 58.2499 74.4582C64.7083 70.0415 86.7499 54.3332 76.7916 47.0832ZM39.6249 57.0415C37.8333 58.0415 34.3333 60.0415 32.9166 61.0415L29.3749 52.6248L39.7499 52.2498L42.6666 55.3748L39.6249 57.0415ZM25.3333 0.166504C20.7499 0.166504 16.9999 3.9165 16.9999 8.49984C16.9999 13.0832 20.7499 16.8332 25.3333 16.8332C29.9166 16.8332 33.6666 13.1248 33.6666 8.49984C33.6666 3.87484 29.9583 0.166504 25.3333 0.166504Z" fill="#4A4A4A"/>
</svg>
