<svg width="96" height="107" viewBox="0 0 96 107" fill="none" xmlns="http://www.w3.org/2000/svg">
<path d="M0.517578 88.0564L7.02211 84.0155L10.956 79.938C10.956 79.938 46.6086 84.0125 62.9494 87.387C79.2902 90.7615 96.5419 100.213 95.5423 103.199C94.4144 106.561 72.1591 108.056 57.4291 105.791C42.6992 103.526 0.517578 88.0564 0.517578 88.0564Z" fill="#FEEDCD"/>
<path opacity="0.2" d="M95.5428 103.199L7.01953 84.0155L10.9565 79.938C10.9565 79.938 46.6091 84.0125 62.9499 87.387C79.2907 90.7615 96.5423 100.216 95.5428 103.199Z" fill="white"/>
<path d="M22.5503 93.5001C23.2594 93.549 41.8866 88.7348 42.4826 88.1021C42.7088 87.8637 42.177 85.1096 41.4159 81.7993C41.2539 81.0841 38.8361 69.8784 38.8361 69.8784L27.3462 72.4705L29.3941 84.8804C29.3941 84.8804 23.0883 89.9147 22.5106 90.688C21.9329 91.4613 21.8442 93.4482 22.5503 93.5001Z" fill="#F7A9A0"/>
<path d="M57.7927 27.9839C57.7927 27.9839 37.7961 54.7386 37.5485 56.5512C37.1818 59.3358 40.8803 79.3568 40.8803 79.3568L28.9594 82.3095C28.9594 82.3095 23.7631 63.2881 25.5971 55.2338C26.9267 49.4262 43.3562 29.7995 43.3562 29.7995L57.7927 27.9839Z" fill="#F7A9A0"/>
<path d="M50.8915 86.5035L62.9653 83.6639C62.9653 83.6639 53.0984 58.6423 53.0495 56.8236C53.0037 55.2097 60.4007 38.0955 60.9357 33.9293C61.4981 29.5492 59.5327 26.9694 56.1734 24.897L43.3692 29.7876C43.3692 29.7876 45.9581 32.7464 48.2017 34.1341C48.2017 34.1341 40.0313 52.0277 40.0068 57.0192C39.9946 63.3862 50.8915 86.5035 50.8915 86.5035Z" fill="#F7A9A0"/>
<path d="M48.3845 33.9474C47.2373 35.8837 46.2311 37.9002 45.3737 39.9812C44.4567 42.0781 43.6651 44.2116 42.904 46.3604C42.6879 46.9717 42.474 47.5831 42.2621 48.1944C42.0322 48.8024 41.8333 49.4217 41.666 50.0498C41.666 50.0773 41.7027 50.0956 41.7149 50.0681C41.9653 49.5519 42.1898 49.0234 42.3874 48.4848C42.6044 47.9529 42.8123 47.418 43.0232 46.8831C43.445 45.8133 43.8454 44.7435 44.2458 43.6645C45.0609 41.5717 45.93 39.5023 46.8531 37.4564C47.3819 36.2949 47.9138 35.1364 48.412 33.9627C48.4365 33.9444 48.3998 33.9199 48.3845 33.9474Z" fill="#263238"/>
<path d="M46.3492 100.867C47.0583 100.922 66.095 95.5327 66.7583 94.4048C67.0915 93.8393 60.3394 77.04 60.3394 77.04L48.5591 80.7661L52.9301 91.5529C52.9301 91.5529 46.9116 97.275 46.3278 98.03C45.7439 98.785 45.6461 100.808 46.3492 100.867Z" fill="#F7A9A0"/>
<path d="M59.7181 27.9261C59.7181 27.9261 53.6874 27.0336 48.2007 34.1341C48.2007 34.1341 44.7498 32.456 43.3682 29.7876L56.1724 24.897C57.6064 25.5676 58.8317 26.6145 59.7181 27.9261Z" fill="#FEEDCD"/>
<path d="M57.612 25.7529C57.0745 25.9383 56.5264 26.0914 55.9706 26.2114C55.5382 26.3195 55.1425 26.5411 54.8243 26.8533C54.5305 27.1905 54.2818 27.5645 54.0846 27.9659C53.8768 28.4032 53.5715 28.7869 53.1921 29.0877C53.0035 29.243 52.7686 29.3309 52.5244 29.3375C52.2802 29.3442 52.0408 29.2692 51.8441 29.1244C51.7122 29.0204 51.5995 28.8942 51.511 28.7515C51.5482 28.7341 51.584 28.7137 51.6179 28.6904C52.0937 28.3634 52.4415 27.8816 52.6022 27.3271C52.7026 26.9962 52.7521 26.652 52.7489 26.3062C52.7489 26.2726 52.7489 26.2389 52.7489 26.2053L52.5808 26.2695C52.5807 26.5118 52.5562 26.7535 52.5074 26.9909C52.4239 27.4554 52.2122 27.8874 51.8961 28.238C51.7623 28.3778 51.6064 28.4945 51.4345 28.5834C51.3124 28.3282 51.2546 28.0469 51.2664 27.7642C51.2989 27.364 51.4488 26.9822 51.6974 26.6669C51.7157 26.6394 51.7371 26.6149 51.7585 26.5874L51.3703 26.7372C51.1849 27.0219 51.0745 27.3488 51.0494 27.6877C51.0243 28.0265 51.0853 28.3662 51.2267 28.6751C50.5573 28.9318 49.7656 28.7973 49.3927 28.0882C49.3038 27.9223 49.2537 27.7383 49.246 27.5502L49.0412 27.6297C49.0517 27.723 49.0712 27.8152 49.0993 27.9048C49.1749 28.12 49.2947 28.317 49.4508 28.4832C49.607 28.6494 49.7962 28.7812 50.0062 28.8701C50.2163 28.959 50.4426 29.0031 50.6706 28.9995C50.8987 28.9959 51.1235 28.9448 51.3306 28.8493C51.4412 29.0426 51.5956 29.2071 51.7814 29.3298C51.9672 29.4524 52.1793 29.5297 52.4004 29.5554C52.631 29.5574 52.8593 29.5102 53.0702 29.4169C53.281 29.3236 53.4695 29.1864 53.6231 29.0144C54.3597 28.2869 54.5401 27.0978 55.5182 26.6027C56.2457 26.2359 57.1046 26.245 57.8321 25.8935C57.722 25.8446 57.6731 25.7957 57.612 25.7529ZM49.5914 31.5177C49.2847 31.4135 49.0305 31.1944 48.8822 30.9064C48.7376 30.6451 48.5518 30.4088 48.332 30.2064C48.1083 30.0296 47.837 29.9232 47.5526 29.9008C47.2459 29.8842 46.94 29.9463 46.664 30.0811C46.3879 30.2159 46.1509 30.419 45.9754 30.6711C45.6369 31.145 45.4591 31.7149 45.468 32.2972L45.6728 32.4684C45.6657 32.0418 45.7534 31.619 45.9295 31.2304C46.0354 30.9614 46.2074 30.7234 46.4297 30.5385C46.6519 30.3537 46.9173 30.2279 47.2011 30.1728C47.4723 30.1283 47.7506 30.1711 47.9958 30.2951C48.2259 30.441 48.4152 30.643 48.546 30.882C48.8517 31.3343 49.1237 31.7256 49.6892 31.799C49.8665 31.8265 50.0468 31.8326 50.2272 31.8509L50.4717 31.6186C50.1813 31.585 49.8787 31.5972 49.5914 31.5177ZM44.8444 29.2283C44.455 29.583 44.0322 29.8993 43.582 30.1728C43.6126 30.2248 43.6432 30.2737 43.6768 30.3226L44.1383 30.0169C44.5591 29.7711 44.9311 29.4499 45.2357 29.0694L44.8444 29.2283Z" fill="white"/>
<path d="M35.3575 16.5093C32.8205 18.3433 30.0787 20.9567 26.8784 21.4672C24.3689 21.8615 21.8685 20.8864 19.7931 19.5415C15.2356 16.5796 11.1856 10.9065 13.4016 5.29145C14.3186 3.04788 17.6137 0.60257 20.1262 1.71824C21.4162 2.28983 22.3362 3.37188 23.3724 4.29499C23.9925 4.8878 24.7384 5.33309 25.5544 5.5977C26.3705 5.86231 27.2357 5.93943 28.0857 5.82331C31.6406 5.41066 32.4109 4.86964 35.278 2.90116C36.0569 2.35435 36.9908 2.072 37.9421 2.09566C38.8935 2.11932 39.8122 2.44774 40.5629 3.0326C41.167 3.42814 41.6629 3.96815 42.0057 4.60371C42.7117 5.97614 42.3327 7.98435 42.2441 9.46071C42.1554 10.9371 41.6725 11.9274 40.4621 12.823C38.7717 14.0793 37.0631 15.2836 35.3575 16.5093Z" fill="#263238"/>
<path d="M34.3358 17.64C36.5549 15.806 38.7374 13.9506 40.932 12.0983C40.932 12.0983 40.932 12.0647 40.932 12.0769C39.0797 13.5471 37.2121 14.9929 35.3812 16.4876C33.5502 17.9823 31.8416 19.584 29.9251 20.8892C25.6213 23.8144 20.9233 20.4949 18.7164 16.6496C18.6155 16.4754 18.3496 16.6496 18.4566 16.8269C20.4984 20.1434 24.1511 23.3039 28.3356 21.9743C30.6067 21.2499 32.5232 19.1408 34.3358 17.64Z" fill="#263238"/>
<path d="M36.8765 2.27781C36.9224 2.24724 36.8765 2.17999 36.8276 2.2075C34.3579 3.66246 31.6313 5.5912 28.642 5.5912C27.1748 5.58794 25.7429 5.14153 24.5338 4.31047C23.5802 3.65024 22.926 2.71796 22.1283 1.89878C19.0013 -1.30763 14.0129 1.89878 13.8203 5.83573C13.8203 5.91826 13.9579 5.93049 13.967 5.83573C14.236 2.97472 16.556 0.575258 19.5607 0.80145C21.9693 0.984848 23.0025 3.6808 24.9679 4.79647C29.0332 7.11341 33.4439 4.6253 36.8765 2.27781Z" fill="#263238"/>
<path d="M39.0099 15.2804C35.7331 16.8729 32.0316 18.9758 31.2613 19.1623C30.491 19.3487 23.4302 17.744 21.4434 17.53C19.7897 17.3528 19.9701 24.0009 20.9207 24.6337C21.8193 25.2297 29.895 26.5013 32.7162 25.9113C34.9629 25.4437 38.4383 20.4705 40.2478 18.2697C42.418 15.638 41.5499 14.0455 39.0099 15.2804Z" fill="#F7A9A0"/>
<path d="M22.8493 18.0437C20.2879 16.8822 17.3718 15.9958 14.4955 16.5827C14.1741 16.6399 13.8813 16.8035 13.6641 17.0473C12.3712 17.2887 12.0961 17.9643 12.0961 17.9643C10.9559 18.5572 10.7725 19.297 10.7725 19.297C10.7725 19.297 9.24423 19.6026 9.28396 20.541C9.31147 21.6017 11.4236 20.9751 12.8174 21.3449C15.9749 22.1916 20.2298 24.2793 21.1193 24.6124L22.8493 18.0437Z" fill="#F7A9A0"/>
<path d="M16.7638 19.9118C15.8423 19.6517 14.9036 19.4566 13.9548 19.328C12.9088 19.25 11.8585 19.25 10.8125 19.328C10.8061 19.328 10.7998 19.3254 10.7952 19.3208C10.7907 19.3162 10.7881 19.31 10.7881 19.3035C10.7881 19.297 10.7907 19.2908 10.7952 19.2862C10.7998 19.2816 10.8061 19.2791 10.8125 19.2791C12.813 18.9287 14.8711 19.1327 16.7638 19.869C16.8066 19.8873 16.7974 19.924 16.7638 19.9118Z" fill="#263238"/>
<path d="M17.5404 18.0776C16.6234 17.9033 14.9942 17.6099 12.0996 18.0012C12.0996 18.0012 12.0843 18.0012 12.0996 17.9859C13.8864 17.4945 15.7749 17.5114 17.5526 18.0348C17.6046 18.0501 17.6015 18.0898 17.5404 18.0776Z" fill="#263238"/>
<path d="M17.9434 17.0843C16.525 16.8791 15.0852 16.8688 13.6641 17.0537V17.0354C15.5408 16.6625 16.2653 16.7297 17.9434 17.0354C18.0167 17.0415 18.0045 17.0934 17.9434 17.0843Z" fill="#263238"/>
<path d="M16.7784 21.9839C17.1666 22.2254 16.6928 22.9009 15.8247 23.1913C15.0422 23.448 11.7839 23.2554 11.7686 24.4139C11.7533 25.5724 16.3872 25.9606 17.7229 25.7069C18.8885 25.4228 20.0284 25.0425 21.1311 24.5698C20.8285 24.4384 18.5115 22.5035 16.7784 21.9839Z" fill="#F7A9A0"/>
<path d="M41.3111 26.9752L43.3682 29.7873L56.1724 24.8967C56.1724 24.8967 50.267 15.2683 44.5175 12.9758C41.6412 11.8296 40.2137 12.7618 39.4863 14.874C39.3029 15.4089 37.5514 21.5741 38.1352 23.9461C38.6579 26.0429 41.3111 26.9752 41.3111 26.9752Z" fill="#F7A9A0"/>
<path d="M44.9362 12.3799C48.5736 12.548 55.9401 14.2444 56.7226 14.1497C58.2846 13.9571 64.3 12.8811 66.0392 12.4502C67.6531 12.0497 68.2767 18.6399 67.2619 19.1411C66.6261 19.4468 59.4094 20.8009 56.5484 20.4586C53.3145 20.0704 48.2068 17.6587 45.8838 16.0142C42.8271 13.8593 43.1909 12.3004 44.9362 12.3799Z" fill="#F7A9A0"/>
<path d="M66.04 12.4499C68.7177 11.594 71.7132 11.0469 74.5069 11.9639C74.8188 12.0577 75.0901 12.2536 75.2772 12.5202C76.5365 12.9084 76.7291 13.6175 76.7291 13.6175C77.7928 14.3389 77.8906 15.0939 77.8906 15.0939C77.8906 15.0939 79.3639 15.5646 79.2264 16.503C79.0735 17.5545 77.0378 16.6864 75.6257 16.8942C72.3887 17.3711 67.9199 18.9514 66.9998 19.1837L66.04 12.4499Z" fill="#F7A9A0"/>
<path d="M71.8805 15.0084C72.8263 14.8589 73.7811 14.7731 74.7384 14.7517C75.7862 14.7953 76.8292 14.9158 77.8593 15.1124C77.8658 15.1124 77.872 15.1098 77.8766 15.1052C77.8811 15.1006 77.8837 15.0944 77.8837 15.0879C77.8837 15.0814 77.8811 15.0752 77.8766 15.0706C77.872 15.066 77.8658 15.0635 77.8593 15.0635C75.9068 14.4828 73.8325 14.449 71.8621 14.9656C71.8285 14.9779 71.8316 15.0145 71.8805 15.0084Z" fill="#263238"/>
<path d="M71.3098 13.0982C72.2451 13.031 73.8926 12.924 76.7231 13.6484C75.0043 12.9561 73.127 12.755 71.3006 13.0676C71.2486 13.0615 71.2486 13.1013 71.3098 13.0982Z" fill="#263238"/>
<path d="M71.0216 12.0652C72.4523 12.0244 73.8818 12.1797 75.2703 12.5268C75.2703 12.5268 75.2703 12.5268 75.2703 12.5084C73.4364 11.9215 72.7211 11.9154 71.0094 12.0102C70.9544 12.0132 70.9605 12.0683 71.0216 12.0652Z" fill="#263238"/>
<path d="M71.7617 17.7134C71.3644 17.9426 71.4805 18.1535 72.2875 18.2697C73.0944 18.3858 76.3834 18.1596 76.365 19.3151C76.3467 20.4705 71.7006 20.7181 70.374 20.4246C69.2209 20.1045 68.0963 19.6895 67.0117 19.1836C67.8951 18.9513 70.0103 18.1872 71.7617 17.7134Z" fill="#F7A9A0"/>
<path d="M54.0725 19.9051C53.1239 19.7052 52.195 19.4208 51.2971 19.0554C50.39 18.7073 49.528 18.2517 48.7295 17.6982L51.4132 18.7711C52.3027 19.141 53.1952 19.4894 54.0725 19.9051Z" fill="#263238"/>
<path d="M49.0352 18.2241C49.2788 18.3221 49.5291 18.4028 49.784 18.4656C49.9094 18.4992 50.0377 18.5237 50.1661 18.5451C50.2945 18.5665 50.4259 18.5787 50.5604 18.6001C50.2944 18.6735 50.0134 18.6735 49.7474 18.6001C49.6145 18.5657 49.4862 18.5154 49.3653 18.4503C49.2432 18.3943 49.1315 18.3178 49.0352 18.2241Z" fill="#263238"/>
<path d="M39.4044 14.5379C39.4044 14.5379 39.0468 20.7948 39.1293 21.0608C39.2118 21.3267 41.3912 21.6476 41.9628 21.3267C42.5344 21.0057 43.9129 19.9451 44.1024 19.4927C44.2919 19.0403 42.5741 12.7437 42.6352 12.4624C42.6964 12.1812 43.4789 12.4838 43.4789 12.4838C43.4789 12.4838 46.9848 19.398 47.4097 19.78C50.0201 22.1367 53.7064 21.3083 53.7064 21.3083C54.6234 21.9013 56.1762 24.8724 56.1762 24.8724L43.3719 29.763L41.1558 27.0334C41.1558 27.0334 38.3682 25.8658 37.9953 23.6711C37.6224 21.4765 39.0895 15.0514 39.0895 15.0514L39.4044 14.5379Z" fill="#FEEDCD"/>
<path d="M53.9328 21.519C53.7526 21.6531 53.6016 21.8226 53.4891 22.017C53.3766 22.2115 53.305 22.4269 53.2787 22.65C53.2145 23.1941 53.3398 23.7565 53.1809 24.2914C53.0611 24.6471 52.8685 24.974 52.6154 25.2512C52.7316 24.7762 52.7104 24.278 52.5543 23.8146C52.4619 23.5945 52.3214 23.398 52.1432 23.2393C51.9649 23.0806 51.7534 22.9639 51.5242 22.8976C50.5277 22.5919 49.6291 23.3683 49.4029 24.3098C49.3452 24.5922 49.3288 24.8815 49.354 25.1687C49.3746 25.5088 49.3427 25.8501 49.2592 26.1804C49.0931 26.644 49.0123 27.1338 49.0208 27.6262L49.2256 27.5467C49.2198 27.1894 49.2756 26.8337 49.3906 26.4952C49.4607 26.257 49.5128 26.0138 49.5465 25.7678C49.5664 25.494 49.5664 25.2193 49.5465 24.9455C49.5157 24.4686 49.6555 23.9962 49.9408 23.6128C50.0722 23.4365 50.2414 23.292 50.4361 23.1898C50.6308 23.0877 50.846 23.0307 51.0657 23.0229C51.3155 23.0234 51.5609 23.0887 51.7779 23.2124C51.9949 23.3362 52.1761 23.5142 52.3036 23.729C52.5818 24.2089 52.5543 24.8263 52.5145 25.3735C52.2272 25.6975 51.9032 25.9848 51.6403 26.3271C51.5366 26.4548 51.4436 26.5907 51.3622 26.7337L51.7504 26.5839C52.0034 26.2645 52.2727 25.9584 52.5573 25.6669C52.5573 25.8045 52.5818 25.9389 52.5848 26.0765C52.5848 26.1346 52.5848 26.1926 52.5848 26.2507L52.7529 26.1865C52.7528 25.9649 52.7313 25.7438 52.6888 25.5263C52.8605 25.3367 53.015 25.1321 53.1503 24.915C53.3828 24.5269 53.4995 24.0804 53.4865 23.6281C53.4865 23.0412 53.3673 22.4055 53.7678 21.9134C53.8586 21.801 53.961 21.6985 54.0734 21.6077C54.0123 21.5863 53.9725 21.5557 53.9328 21.519ZM48.8099 21.8492C48.5811 21.508 48.4636 21.1044 48.4737 20.6938C48.4737 20.6571 48.4737 20.6204 48.4951 20.5837L48.3453 20.4951C48.2765 20.7472 48.2765 21.0132 48.3453 21.2653C48.4431 21.5924 48.6357 21.8767 48.7579 22.1976C49.0636 22.9343 48.7029 23.677 48.1466 24.1783C47.2632 24.9639 45.2336 25.8228 44.6437 24.2486C44.5629 24.0221 44.5225 23.7831 44.5245 23.5425C44.8291 23.501 45.1082 23.3499 45.3095 23.1176C45.5109 22.8853 45.6208 22.5876 45.6188 22.2801C45.6178 21.9641 45.4926 21.6611 45.2703 21.4365C45.3936 21.1828 45.4771 20.9117 45.5179 20.6326C45.5191 20.2352 45.4864 19.8385 45.4201 19.4466C45.4172 19.0565 45.5429 18.6762 45.7777 18.3646C45.9139 18.1745 46.0742 18.0029 46.2545 17.8541L46.1812 17.7196C46.0501 17.8105 45.9273 17.9127 45.8144 18.0253C45.5666 18.2733 45.3803 18.5758 45.2703 18.9087C45.1816 19.2742 45.1816 19.6557 45.2703 20.0213C45.327 20.4377 45.2645 20.8616 45.09 21.2439C44.7338 20.9883 44.3948 20.7095 44.0752 20.4095C43.9435 20.2533 43.854 20.066 43.8153 19.8654L43.7053 19.9785C43.7337 20.1181 43.7887 20.2509 43.8673 20.3697C44.173 20.7977 44.662 21.0208 45.0349 21.3693C44.8913 21.6749 44.7293 21.9989 44.5764 22.326C44.4303 22.6567 44.3434 23.0106 44.3197 23.3714C44.2456 23.3697 44.1718 23.3605 44.0996 23.3439C43.6472 23.2369 43.3935 22.8548 43.1826 22.4727C42.9915 22.1126 42.7575 21.777 42.4857 21.4732C42.3909 21.3693 42.3023 21.2653 42.2198 21.1675C42.1797 21.1975 42.1378 21.2251 42.0945 21.2501C42.2106 21.4029 42.3359 21.5404 42.4613 21.6841C42.6428 21.8933 42.8007 22.1219 42.932 22.3657C43.1551 22.7692 43.3752 23.2185 43.8123 23.4294C43.9711 23.5054 44.1438 23.5481 44.3197 23.5548C44.3208 23.7711 44.3527 23.9862 44.4144 24.1936C44.4997 24.4956 44.6734 24.7652 44.913 24.9678C45.1527 25.1704 45.4474 25.2968 45.7594 25.3307C46.4929 25.4101 47.2296 25.0709 47.8256 24.6735C48.4217 24.2761 48.9994 23.6648 49.0636 22.8884C49.0766 22.5252 48.9888 22.1655 48.8099 21.8492ZM44.7476 22.5033C44.8852 22.1976 45.0533 21.892 45.2122 21.5863C45.2606 21.6494 45.3045 21.7158 45.3437 21.785C45.4431 21.9784 45.4852 22.1962 45.4652 22.4128C45.4452 22.6293 45.3638 22.8357 45.2306 23.0076C45.0575 23.2232 44.8078 23.3634 44.5337 23.3989C44.5541 23.0904 44.6265 22.7877 44.7476 22.5033ZM44.7109 26.7826C44.3396 26.6803 43.9503 26.6616 43.5708 26.7276C43.3681 26.7533 43.1622 26.7364 42.9664 26.678C42.7706 26.6196 42.5892 26.5209 42.4337 26.3883C42.1739 26.1621 41.963 25.887 41.7124 25.6516C41.4685 25.4192 41.1747 25.2457 40.8535 25.1442C40.6605 25.0867 40.4615 25.0518 40.2605 25.0403C40.0085 24.5434 39.63 24.1217 39.1631 23.8176C39.0188 23.711 38.8531 23.6369 38.6774 23.6005C38.5016 23.5641 38.3201 23.5662 38.1453 23.6067C38.0922 23.6204 38.0401 23.6377 37.9894 23.6587C37.9894 23.6587 37.9894 23.6587 37.9894 23.6801C37.993 23.7048 37.9981 23.7293 38.0047 23.7534C38.1551 23.7029 38.3146 23.6846 38.4726 23.6999C38.6306 23.7151 38.7837 23.7636 38.9217 23.8421C39.3982 24.1238 39.7883 24.5308 40.0496 25.0189C39.6037 25.0268 39.1629 25.1137 38.7474 25.2757L38.8544 25.3979L38.9186 25.3735C39.3109 25.2343 39.7251 25.167 40.1413 25.1748C40.2253 25.318 40.2765 25.4781 40.2913 25.6435C40.3061 25.809 40.2841 25.9756 40.2268 26.1315C40.1776 26.2351 40.1017 26.3238 40.0068 26.3883L40.1474 26.48L40.1993 26.4311C40.3087 26.3155 40.3875 26.1744 40.4286 26.0207C40.4696 25.867 40.4718 25.7055 40.4347 25.5507C40.4087 25.4265 40.3719 25.3048 40.3247 25.187C40.5598 25.2055 40.7903 25.2634 41.0063 25.3582C41.6176 25.6272 41.9233 26.2232 42.4368 26.6114C42.6861 26.8013 42.9886 26.9082 43.3018 26.9171C43.6951 26.8774 44.0914 26.8774 44.4847 26.9171C44.6568 26.9604 44.817 27.0414 44.9539 27.1542C45.0909 27.267 45.201 27.4088 45.2765 27.5693C45.3519 27.7299 45.3908 27.9052 45.3902 28.0826C45.3897 28.26 45.3498 28.4351 45.2734 28.5952C45.1683 28.8236 45.0222 29.0308 44.8424 29.2065L45.2336 29.0598C45.3912 28.8493 45.5017 28.6075 45.5576 28.3506C45.6243 28.0314 45.5758 27.6988 45.4209 27.4118C45.2659 27.1249 45.0144 26.902 44.7109 26.7826ZM39.261 17.2061C39.0168 17.2767 38.7878 17.3917 38.5854 17.5454C38.5854 17.6035 38.561 17.6646 38.5518 17.7258C38.7545 17.5366 38.9952 17.3928 39.2579 17.3039C39.2579 17.2734 39.2579 17.2398 39.261 17.2061ZM39.1326 21.0636C39.0569 21.2208 38.9471 21.3592 38.8112 21.4687C38.6753 21.5781 38.5168 21.6559 38.347 21.6963C38.2246 21.7141 38.0996 21.6972 37.9863 21.6474C37.9863 21.7086 37.9863 21.7666 37.9863 21.8247C38.0218 21.8395 38.0587 21.8508 38.0964 21.8583C38.2939 21.8849 38.4949 21.8554 38.6765 21.7733C38.8581 21.6911 39.0129 21.5596 39.1234 21.3937C39.1796 21.322 39.2306 21.2464 39.2762 21.1675C39.217 21.1521 39.1658 21.115 39.1326 21.0636ZM45.414 16.2616C45.4008 16.2854 45.3854 16.3079 45.3681 16.3289C45.2498 16.4746 45.0808 16.5704 44.8949 16.597C44.7091 16.6236 44.52 16.5792 44.3655 16.4725C44.0599 16.2525 44.0599 15.8918 43.9407 15.5555C43.7909 15.149 43.4088 14.9442 43.1123 14.663L43.1765 14.9228C43.3692 15.0652 43.5411 15.234 43.687 15.4241C43.904 15.7512 43.8367 16.176 44.1088 16.4786C44.2182 16.6014 44.3597 16.6913 44.5173 16.7383C44.6749 16.7852 44.8425 16.7874 45.0013 16.7446C45.2013 16.6955 45.3771 16.5762 45.4965 16.4083L45.414 16.2616ZM43.6625 12.8779C43.3233 12.995 43.0322 13.2206 42.8342 13.5198C42.8494 13.5871 42.8678 13.6543 42.8831 13.7246C42.9292 13.6217 42.9899 13.5259 43.0634 13.4403C43.2317 13.2271 43.4487 13.0573 43.6961 12.9452C43.687 12.9207 43.6778 12.8993 43.6625 12.8779Z" fill="white"/>
<path d="M41.1863 26.6608C41.8106 26.3468 42.4526 26.0692 43.1089 25.8293C43.436 25.7071 43.7692 25.6093 44.1085 25.5237C44.2705 25.4809 44.4294 25.4381 44.5945 25.4014C44.7595 25.3647 44.9582 25.3403 45.1355 25.2944V25.3219C44.9704 25.3708 44.8084 25.4473 44.6464 25.5023L44.1513 25.6735C43.8242 25.7896 43.4971 25.9088 43.167 26.0189C42.5037 26.245 41.8496 26.4743 41.1955 26.7219C41.171 26.728 41.1527 26.676 41.1863 26.6608Z" fill="#263238"/>
<path d="M42.3691 14.0948C42.4058 14.4005 41.6875 16.7939 40.3365 17.2034C39.8963 17.3379 39.0619 14.966 39.0619 14.966L38.961 14.804L37.5488 12.5482L39.771 9.678L40.1011 9.28369C40.1011 9.28369 40.4465 9.92864 40.8714 10.7325L40.9325 10.8456C40.96 10.8915 40.9814 10.9343 41.0059 10.9771L41.1985 11.3408C41.2474 11.4356 41.2932 11.5242 41.3421 11.6251C41.391 11.7259 41.4369 11.8207 41.4888 11.9307C41.8312 12.6312 42.1253 13.3543 42.3691 14.0948Z" fill="#F7A9A0"/>
<path d="M42.2652 13.7739C40.2876 14.3149 38.9427 13.9451 38.1693 13.5477L37.5488 12.5482L39.771 9.678L40.1011 9.28369C40.1011 9.28369 40.4465 9.92558 40.8714 10.7325C40.8942 10.7699 40.9146 10.8087 40.9325 10.8487L41.0059 10.9771C41.067 11.0963 41.1343 11.2185 41.1985 11.3408C41.2626 11.4631 41.2932 11.5242 41.3421 11.6251C41.391 11.7259 41.4369 11.8207 41.4888 11.9307C41.8281 12.6246 42.1124 13.3582 42.2652 13.7739Z" fill="#263238"/>
<path d="M43.818 8.63557C43.6805 13.3122 40.8653 13.7554 39.8444 13.7249C38.9274 13.6974 35.8157 13.4834 35.4703 8.83425C35.1249 4.18511 37.344 2.75766 39.444 2.72098C41.5439 2.6843 43.9678 3.95892 43.818 8.63557Z" fill="#F7A9A0"/>
<path d="M43.051 7.77962C42.9505 7.80794 42.8484 7.83039 42.7453 7.84686C42.6373 7.88343 42.5202 7.88343 42.4122 7.84686C42.3801 7.82965 42.3547 7.80235 42.3397 7.76918C42.3248 7.73602 42.3213 7.69885 42.3296 7.66346C42.3575 7.59588 42.4027 7.53685 42.4606 7.49231C42.5186 7.44776 42.5873 7.41929 42.6597 7.40976C42.8048 7.37018 42.9593 7.38541 43.0938 7.45255C43.1249 7.46979 43.1501 7.49599 43.1662 7.52776C43.1822 7.55952 43.1883 7.59537 43.1837 7.63065C43.1791 7.66593 43.1639 7.699 43.1403 7.72557C43.1166 7.75213 43.0855 7.77097 43.051 7.77962Z" fill="#263238"/>
<path d="M39.8748 7.57197C39.9786 7.53849 40.0806 7.49972 40.1804 7.45582C40.2914 7.42998 40.3905 7.36753 40.4616 7.27853C40.4793 7.24649 40.4856 7.20941 40.4795 7.17333C40.4734 7.13725 40.4552 7.10431 40.428 7.07985C40.3682 7.03815 40.2982 7.01355 40.2255 7.0087C40.1528 7.00385 40.0801 7.01894 40.0154 7.05234C39.8718 7.09651 39.7504 7.1938 39.6761 7.32438C39.6609 7.35426 39.6547 7.38787 39.6582 7.42119C39.6616 7.45451 39.6746 7.48613 39.6956 7.51225C39.7165 7.53838 39.7446 7.55791 39.7764 7.5685C39.8082 7.57909 39.8423 7.5803 39.8748 7.57197Z" fill="#263238"/>
<path d="M40.5019 8.53174C40.5019 8.53174 40.4775 8.53174 40.4775 8.55925C40.4775 8.86491 40.4377 9.24088 40.1504 9.34175V9.36009C40.505 9.31424 40.56 8.83129 40.5019 8.53174Z" fill="#263238"/>
<path d="M40.2236 8.19858C39.7132 8.15578 39.6643 9.17365 40.135 9.21644C40.6057 9.25923 40.6485 8.23526 40.2236 8.19858Z" fill="#263238"/>
<path d="M40.0187 8.24105C39.927 8.29607 39.8353 8.39388 39.713 8.39694C39.5908 8.4 39.4991 8.29302 39.4226 8.18604H39.4043C39.4043 8.38166 39.4563 8.5834 39.6641 8.62313C39.872 8.66287 40.0003 8.49475 40.0584 8.29913C40.0859 8.27468 40.0554 8.21966 40.0187 8.24105Z" fill="#263238"/>
<path d="M42.3018 8.49463C42.3018 8.49463 42.3262 8.49463 42.3232 8.52214C42.2956 8.8278 42.3232 9.20377 42.5983 9.32603V9.34437C42.2467 9.27407 42.2253 8.78807 42.3018 8.49463Z" fill="#263238"/>
<path d="M42.6017 8.18018C43.1121 8.18018 43.0938 9.19192 42.6231 9.20109C42.1524 9.21026 42.1738 8.18935 42.6017 8.18018Z" fill="#263238"/>
<path d="M42.8154 8.25019C42.8949 8.30826 42.9713 8.40608 43.0691 8.41525C43.1669 8.42442 43.2648 8.31437 43.3381 8.21045H43.3534C43.3534 8.40607 43.2862 8.60781 43.0997 8.64144C42.9132 8.67506 42.794 8.50389 42.7604 8.30826C42.7451 8.28381 42.7818 8.22879 42.8154 8.25019Z" fill="#263238"/>
<path d="M41.8282 9.95305C41.8282 9.95305 41.874 10.4299 41.8679 10.653C41.8679 10.6714 41.8129 10.6805 41.7365 10.6805C41.5437 10.709 41.3469 10.6835 41.1678 10.6069C40.9886 10.5303 40.8342 10.4055 40.7217 10.2465C40.7217 10.2251 40.737 10.2037 40.7553 10.219C41.0331 10.421 41.3686 10.5282 41.712 10.5246C41.7304 10.4635 41.605 9.71464 41.6387 9.71464C41.8118 9.73649 41.9813 9.78067 42.143 9.84607C42.0697 8.85572 41.8374 7.88371 41.7854 6.89336C41.7854 6.88525 41.7886 6.87748 41.7943 6.87175C41.8001 6.86601 41.8078 6.86279 41.816 6.86279C41.8241 6.86279 41.8318 6.86601 41.8376 6.87175C41.8433 6.87748 41.8465 6.88525 41.8465 6.89336C42.1239 7.928 42.297 8.98783 42.3631 10.057C42.357 10.1792 41.9046 9.99585 41.8282 9.95305Z" fill="#263238"/>
<path d="M41.6321 10.644C41.4977 10.8082 41.3228 10.9346 41.1247 11.0108C41.0152 11.0445 40.8981 11.0445 40.7885 11.0108C40.547 10.9374 40.547 10.7051 40.599 10.5248C40.6262 10.4237 40.6652 10.3263 40.7152 10.2344C40.9685 10.4664 41.2903 10.6101 41.6321 10.644Z" fill="#263238"/>
<path d="M41.1247 11.0104C41.0152 11.0441 40.8981 11.0441 40.7885 11.0104C40.547 10.9371 40.547 10.7048 40.599 10.5244C40.7291 10.5329 40.8523 10.5858 40.948 10.6743C41.0437 10.7627 41.1061 10.8814 41.1247 11.0104Z" fill="#FF98B9"/>
<path d="M35.4093 8.61737C35.935 8.64183 37.442 7.34887 37.7476 4.83631C37.7476 4.83631 37.3166 7.07377 37.1118 7.38861C36.9071 7.70344 37.9555 6.65807 38.2306 4.63763C38.8206 5.16334 39.4837 5.6009 40.1991 5.9367C41.116 6.30656 41.7274 6.35852 41.7946 6.29739C41.8619 6.23625 40.5047 5.64326 40.1715 5.16337C40.1715 5.16337 42.5955 6.61528 43.7631 6.82924C43.8976 6.85369 43.7081 4.42672 42.0147 3.05124C40.3213 1.67575 37.9524 2.2993 37.0996 2.96565C37.0996 2.96565 36.1826 2.99927 35.0486 4.24027C33.9146 5.48126 34.8469 8.59292 35.4093 8.61737Z" fill="#263238"/>
<path d="M36.9587 7.57177L35.7635 6.43164L35.4854 6.77093L36.7997 7.75822L36.9587 7.57177Z" fill="#FEEDCD"/>
<path d="M36.7204 7.92016L35.3388 7.00928L35.1279 7.39441L36.5951 8.13412L36.7204 7.92016Z" fill="#FEEDCD"/>
<path d="M36.2986 9.01147C36.2986 9.01147 35.4519 7.43119 34.7458 7.71851C34.0397 8.00584 34.5593 10.2066 35.3021 10.5887C35.3942 10.6436 35.4965 10.6793 35.6028 10.6936C35.7091 10.708 35.8172 10.7006 35.9206 10.6721C36.024 10.6435 36.1205 10.5943 36.2044 10.5275C36.2882 10.4606 36.3577 10.3775 36.4086 10.283L36.2986 9.01147Z" fill="#F7A9A0"/>
<path d="M34.9105 8.34521C34.9105 8.34521 34.8922 8.34521 34.9105 8.36661C35.1454 8.52031 35.3454 8.72162 35.4976 8.95751C35.6497 9.1934 35.7507 9.45862 35.7939 9.73599C35.7685 9.67783 35.7308 9.62586 35.6834 9.58364C35.636 9.54141 35.5801 9.50993 35.5194 9.49135C35.4587 9.47277 35.3947 9.46753 35.3319 9.47599C35.269 9.48445 35.2086 9.50641 35.155 9.54036C35.1397 9.54036 35.155 9.57398 35.155 9.57093C35.2541 9.55148 35.3569 9.5634 35.4489 9.60504C35.5409 9.64667 35.6177 9.71595 35.6685 9.80323C35.7535 9.9502 35.8222 10.106 35.8733 10.2678C35.8947 10.3198 35.9834 10.3045 35.9742 10.2464V10.2312C36.072 9.54036 35.6471 8.50416 34.9105 8.34521Z" fill="#263238"/>
<path d="M2.86816 88.9086C3.47949 89.1378 9.767 90.8373 10.091 89.8958C10.4975 88.719 8.1103 86.7261 8.69106 86.7506C11.7171 86.8789 13.5328 91.0665 14.3917 91.1888C15.2506 91.3111 15.5226 88.175 14.9266 87.3986C14.3306 86.6222 14.5904 86.0323 15.7794 86.7597C16.9684 87.4872 17.1243 90.0945 17.8365 89.9539C18.5487 89.8133 18.7016 86.9798 18.6312 85.9192C18.5609 84.8585 15.9445 83.104 16.4916 82.511C17.0387 81.918 19.9364 82.9756 21.6145 86.0017C23.2926 89.0278 23.2407 93.1175 24.3258 93.738C25.4109 94.3585 26.5327 92.9953 26.551 92.2097C26.5693 91.4242 24.8179 89.9967 24.8943 89.2967C24.9707 88.5968 27.4741 89.5627 28.4797 91.0482C29.4854 92.5337 30.7508 96.5929 31.9979 97.0698C33.245 97.5466 36.4698 97.3968 38.1112 98.3688C39.7526 99.3409 41.7333 100.23 42.8215 99.8177C43.9096 99.405 41.9045 98.4972 41.8709 97.9837C41.8372 97.4702 43.9463 97.3724 45.7773 97.9837C47.6082 98.595 51.7499 102.532 53.0368 103.162C54.6018 103.926 58.178 103.162 60.5408 104.131C62.9036 105.1 62.3962 105.222 68.1213 106.882C68.1213 106.882 58.4654 107.279 44.1695 103.779C29.8736 100.279 2.86816 88.9086 2.86816 88.9086Z" fill="#455A64"/>
<path d="M16.8189 80.0294C16.3941 80.2586 17.1246 80.9678 17.6381 80.8241C18.1516 80.6804 17.5678 79.6259 16.8189 80.0294Z" fill="#455A64"/>
<path d="M56.94 101.976C56.5151 102.202 57.2457 102.914 57.7622 102.771C58.2788 102.627 57.6889 101.56 56.94 101.976Z" fill="#455A64"/>
<path d="M14.395 85.6537C14.0893 85.9287 14.2513 86.4239 14.5784 86.2038C14.9054 85.9838 14.9299 85.1646 14.395 85.6537Z" fill="#455A64"/>
<path d="M40.2993 97.6967C39.9936 97.9718 40.1556 98.47 40.4827 98.25C40.8097 98.0299 40.8403 97.2077 40.2993 97.6967Z" fill="#455A64"/>
<path d="M25.7163 87.3317C25.3648 87.4968 25.4504 88.2732 25.8203 88.2029C26.1901 88.1326 26.3338 87.0414 25.7163 87.3317Z" fill="#455A64"/>
<path d="M15.6148 82.3251C15.9725 82.3251 16.0611 81.6068 15.5659 81.7902C15.0708 81.9736 15.2603 82.3343 15.6148 82.3251Z" fill="#455A64"/>
<path d="M15.9048 86.0813C16.2624 86.0813 16.348 85.36 15.8528 85.5464C15.3576 85.7329 15.541 86.0813 15.9048 86.0813Z" fill="#455A64"/>
<path d="M7.96921 87.8178C8.32683 87.8178 8.41242 87.0995 7.91724 87.2829C7.42207 87.4663 7.61158 87.8239 7.96921 87.8178Z" fill="#455A64"/>
<path d="M11.2766 85.5772C11.4661 85.5772 11.5119 85.192 11.2491 85.2898C10.9862 85.3876 11.0871 85.5802 11.2766 85.5772Z" fill="#455A64"/>
<path d="M15.4006 85.3052C15.5901 85.3052 15.636 84.9231 15.3731 85.0209C15.1102 85.1187 15.2111 85.3113 15.4006 85.3052Z" fill="#455A64"/>
<path d="M41.2163 96.957C41.4089 96.957 41.4547 96.5749 41.1888 96.6728C40.9229 96.7706 41.0299 96.9601 41.2163 96.957Z" fill="#455A64"/>
<path d="M24.8551 88.3526C25.0691 88.3526 25.121 87.9186 24.8215 88.0286C24.5219 88.1387 24.6381 88.3557 24.8551 88.3526Z" fill="#455A64"/>
<path d="M17.9187 81.9337C18.1327 81.9337 18.1877 81.4996 17.8881 81.6097C17.5886 81.7197 17.7047 81.9367 17.9187 81.9337Z" fill="#455A64"/>
<path d="M34.8714 98.3756C34.4496 98.6048 35.1771 99.314 35.6936 99.1703C36.2102 99.0266 35.6203 97.9721 34.8714 98.3756Z" fill="#455A64"/>
<path d="M21.6754 90.59C21.3698 90.8682 21.5348 91.3633 21.8588 91.1433C22.1828 90.9232 22.2042 90.104 21.6754 90.59Z" fill="#455A64"/>
<path d="M54.3176 104.085C53.9691 104.247 54.0547 105.027 54.4215 104.957C54.7883 104.886 54.9381 103.81 54.3176 104.085Z" fill="#455A64"/>
<path d="M36.7693 99.1243C37.1269 99.1243 37.2156 98.4029 36.7174 98.5894C36.2191 98.7758 36.4148 99.1304 36.7693 99.1243Z" fill="#455A64"/>
<path d="M19.4565 87.1634C19.8141 87.1634 19.8997 86.442 19.4045 86.6284C18.9094 86.8149 19.0989 87.1695 19.4565 87.1634Z" fill="#455A64"/>
<path d="M21.9602 90.0552C22.1497 90.0552 22.1955 89.6701 21.9327 89.7679C21.6698 89.8657 21.7737 90.0552 21.9602 90.0552Z" fill="#455A64"/>
<path d="M27.5744 91.9624C27.7639 91.9624 27.8098 91.5803 27.5469 91.6781C27.284 91.7759 27.3818 91.9655 27.5744 91.9624Z" fill="#455A64"/>
<path d="M53.1655 104.385C53.3794 104.385 53.4314 103.951 53.1349 104.061C52.8384 104.171 52.9515 104.388 53.1655 104.385Z" fill="#455A64"/>
</svg>
